<?xml version="1.0" encoding="UTF-8" standalone="no"?>
<!-- Created with Inkscape (http://www.inkscape.org/) -->

<svg
   version="1.1"
   id="svg1"
   width="840"
   height="1338.6667"
   viewBox="0 0 840 1338.6667"
   sodipodi:docname="Lizard2d.svg"
   inkscape:version="1.3 (0e150ed6c4, 2023-07-21)"
   xmlns:inkscape="http://www.inkscape.org/namespaces/inkscape"
   xmlns:sodipodi="http://sodipodi.sourceforge.net/DTD/sodipodi-0.dtd"
   xmlns="http://www.w3.org/2000/svg"
   xmlns:svg="http://www.w3.org/2000/svg">
  <defs
     id="defs1" />
  <sodipodi:namedview
     id="namedview1"
     pagecolor="#ffffff"
     bordercolor="#000000"
     borderopacity="0.25"
     inkscape:showpageshadow="2"
     inkscape:pageopacity="0.0"
     inkscape:pagecheckerboard="0"
     inkscape:deskcolor="#d1d1d1"
     showgrid="false"
     inkscape:zoom="0.60134458"
     inkscape:cx="419.89237"
     inkscape:cy="669.33338"
     inkscape:window-width="1920"
     inkscape:window-height="1011"
     inkscape:window-x="0"
     inkscape:window-y="0"
     inkscape:window-maximized="1"
     inkscape:current-layer="layer1" />
  <g
     inkscape:groupmode="layer"
     id="layer1"
     inkscape:label="Layer 1">
    <path
       style="fill:#008000"
       d="m 490.63004,1195.2744 c 32.5264,-5.2749 60.96772,-20.0053 84.768,-43.9033 56.74265,-56.9755 72.41147,-152.36355 43.75663,-266.37981 -18.13514,-72.15886 -52.47878,-138.0835 -123.66852,-237.38902 -10.91594,-15.22711 -19.61594,-27.91665 -19.33333,-28.19898 0.28262,-0.28233 3.81385,-1.81164 7.84718,-3.39846 4.03333,-1.58683 15.88282,-7.31843 26.33219,-12.7369 11.6684,-6.05058 19.83878,-9.52943 21.17577,-9.01639 3.10736,1.19241 1.75992,14.76687 -3.6186,36.45463 -2.33421,9.41223 -3.85026,18.13926 -3.36899,19.39341 0.74795,1.94915 2.13037,2.16305 9.51978,1.47302 4.75461,-0.444 12.39065,-2.38544 16.96897,-4.31432 18.01908,-7.59158 37.54692,-9.45495 43.41671,-4.14286 1.41722,1.28256 4.90118,2.69093 7.74213,3.1297 5.7187,0.88323 9.99228,2.80105 17.31464,7.77013 11.15139,7.56754 13.45566,1.18111 3.83539,-10.62999 -3.30844,-4.06187 -5.75144,-7.38522 -5.42889,-7.38522 0.32254,0 4.19038,2.14685 8.59518,4.77078 9.41308,5.60734 13.9741,5.70049 14.59764,0.29811 0.34604,-2.99817 -0.43172,-4.03704 -4.66667,-6.23338 -2.79505,-1.44959 -7.18192,-4.4562 -9.74858,-6.68137 -5.22804,-4.53245 -3.93948,-5.15873 5.91291,-2.87388 6.46873,1.50015 10.42411,-0.24417 9.83467,-4.3371 -0.55932,-3.88371 -5.69532,-6.22886 -13.74758,-6.27726 -10.28371,-0.0618 -11.16611,-1.47287 -4.43278,-7.08848 4.85734,-4.05102 5.53478,-5.18471 4.29831,-7.19318 -2.22967,-3.62181 -8.98506,-3.58534 -18.21367,0.0983 -9.68164,3.86451 -36.71931,12.10699 -43.9852,13.40897 -4.92361,0.88226 -5,0.8307 -5,-3.37494 0,-2.34899 1.27082,-10.91322 2.82404,-19.03164 4.52918,-23.67329 1.8955,-38.99337 -7.90279,-45.97036 -9.84219,-7.00826 -17.14031,-8.73241 -36.92125,-8.72247 -17.76817,0.009 -19.21561,0.21622 -30.0712,4.30653 -6.2725,2.36344 -18.2635,8.48309 -26.64667,13.59924 -8.38317,5.11615 -15.93505,9.30208 -16.78195,9.30208 -4.62717,0 -23.97507,-59.47815 -32.74628,-100.66667 -6.31102,-29.63572 -2.18507,-82.37723 6.88275,-87.98145 2.24159,-1.38538 6.42206,7.18813 12.73988,26.12764 7.19551,21.5706 9.60297,24.63811 19.06701,24.29461 3.42272,-0.12423 19.42313,-3.85748 35.55646,-8.2961 33.0159,-9.08338 54.42598,-13.91425 71.86741,-16.21583 15.35448,-2.02618 21.11468,-4.35696 20.55162,-8.31591 -0.40278,-2.83204 -0.93608,-2.93794 -13.75236,-2.73076 L 552.66667,390.43109 562,387.44893 c 12.01282,-3.83831 18,-7.00653 18,-9.52499 0,-3.47078 -4.08495,-3.80334 -17.75355,-1.44532 -7.29211,1.25799 -13.58069,1.96494 -13.97464,1.571 -0.97347,-0.97348 -1.05482,-0.92106 11.39486,-7.34102 9.08697,-4.6859 11,-6.22185 11,-8.83175 0,-5.34047 -5.28514,-5.48351 -14.54368,-0.3936 -4.40692,2.42272 -8.32117,4.09637 -8.69832,3.71922 -0.37715,-0.37715 -0.0587,-2.95653 0.70761,-5.73196 1.75593,-6.35946 0.8356,-8.80382 -3.31472,-8.80382 -7.53938,0 -10.14133,3.39932 -12.75721,16.66667 -2.84864,14.44788 0.17518,13.03923 -26.52983,12.35894 -12.94178,-0.32969 -24.51564,-1.03462 -25.71967,-1.56651 -1.47302,-0.65072 -3.12841,-5.19113 -5.06042,-13.87976 -1.57921,-7.10197 -4.99244,-19.81268 -7.58495,-28.24601 -7.63006,-24.82018 -8.03929,-22.23489 5.76575,-36.42423 14.57655,-14.98232 18.41085,-20.02866 24.41833,-32.13712 l 4.68289,-9.43865 37.08779,-0.35461 c 28.689,-0.27431 36.96364,-0.72708 36.53954,-1.99939 -0.86165,-2.58496 -12.01598,-3.9908 -32.99311,-4.1583 -18.75097,-0.14972 -19.34572,-0.24129 -19.7444,-3.03985 -0.26497,-1.86003 0.4458,-3.14878 2,-3.62636 4.9847,-1.5317 32.12497,-1.26064 41.7444,0.41693 5.5,0.95916 16.12504,2.0268 23.6112,2.37253 13.60202,0.62817 13.61176,0.62636 14.44183,-2.68091 2.46848,-9.83521 -16.558,-25.42369 -53.38637,-43.73968 C 520.11584,185.66487 501.48919,181.33722 466,181.36436 c -23.76518,0.0182 -33.91483,1.87964 -47.48704,8.70925 -14.8908,7.49314 -27.98339,17.92166 -47.84629,38.11058 -10.46942,10.64126 -19.44989,18.65284 -21.46561,19.14972 -1.90608,0.46984 -7.00608,-0.0785 -11.33333,-1.21864 -4.32725,-1.1401 -15.88273,-2.79029 -25.67883,-3.66709 -10.38474,-0.92948 -18.50335,-2.28642 -19.47135,-3.25442 -0.91313,-0.91314 -2.64967,-9.05528 -3.85898,-18.09366 -3.97043,-29.6751 -3.35344,-31.84708 10.19267,-35.88129 10.76579,-3.20619 15.61543,-7.29269 15.61543,-13.15819 0,-3.45941 -0.50139,-4.06061 -3.38645,-4.06061 -1.86255,0 -5.76255,1.21219 -8.66667,2.69377 -2.90412,1.48157 -5.28022,2.14249 -5.28022,1.46872 0,-0.67377 1.8,-4.64689 4,-8.82916 4.39863,-8.36193 4.92869,-12.22027 2.19281,-15.9618 -2.85999,-3.91127 -5.93291,-1.55964 -10.38,7.94356 -2.23529,4.7767 -4.6076,8.68491 -5.27182,8.68491 -0.66421,0 -1.20765,-4.11047 -1.20765,-9.13437 0,-21.13674 -6.69778,-23.69922 -8.86906,-3.39318 l -0.98312,9.19422 -1.61775,-7.09263 c -2.38279,-10.44675 -8.04447,-15.55312 -10.98479,-9.90737 -0.66837,1.28333 -1.62649,9.83333 -2.12917,19 -1.33036,24.26002 -4.20474,49.08008 -8.74918,75.54841 -6.05641,35.27465 -5.47173,41.43772 4.34306,45.77926 3.1281,1.38371 11.97677,3.51574 19.6637,4.73784 24.13109,3.83646 37.32631,9.16904 37.32631,15.08468 0,1.11027 -3.66881,10.09212 -8.15292,19.95966 -13.13481,28.90397 -21.28637,56.13223 -25.83015,86.27923 -7.90986,52.48018 9.09935,113.38163 48.51706,173.71521 12.15602,18.60626 15.85437,25.21575 14.58775,26.07043 -0.25029,0.16889 -6.75508,3.5142 -14.45508,7.43402 -18.57971,9.45832 -26.97626,15.31256 -37.0313,25.81892 -15.17121,15.85218 -20.50697,34.1029 -13.80881,47.23239 3.94533,7.73348 14.01571,16.10652 28.29413,23.5252 6.90029,3.58521 14.5574,7.72211 17.01581,9.19311 l 4.46982,2.67454 -7.13649,4.49166 c -3.92507,2.47041 -14.77027,9.06071 -24.10045,14.64511 -9.33018,5.5844 -19.39119,12.39425 -22.35779,15.133 -4.62546,4.2702 -5.22405,5.43286 -4.20206,8.16179 0.99614,2.65987 1.96312,3.11291 5.89075,2.75989 6.38967,-0.57431 7.12878,1.44006 3.06972,8.36631 -3.44102,5.87167 -4.41673,13.1109 -2.23198,16.5602 1.69468,2.67557 3.69518,0.88622 8.51268,-7.61418 L 290,780.66671 l 0.32693,6.66667 c 0.67305,13.7245 1.68426,18 4.25724,18 2.41082,0 5.45988,-5.75663 9.53387,-18 l 1.77467,-5.33333 1.00125,8.66666 c 1.37199,11.87573 2.26293,14.94672 4.15522,14.32277 2.77239,-0.91416 4.91068,-6.71886 4.93116,-13.38643 0.0157,-5.09595 0.69768,-7.02537 3.35335,-9.48656 2.15552,-1.99767 3.79499,-5.52198 4.63896,-9.97222 0.7179,-3.78546 1.88626,-7.96826 2.59637,-9.29511 2.3889,-4.46369 11.38813,-11.56146 26.79065,-21.13 8.41885,-5.23007 17.107,-11.40269 19.307,-13.71693 l 4,-4.20773 -3.40149,-2.89723 c -1.87082,-1.59347 -10.50859,-6.79723 -19.19504,-11.56389 -17.73017,-9.72939 -26.98532,-17.02523 -25.73399,-20.28615 0.44308,-1.15464 4.8987,-3.45329 9.90139,-5.10811 16.62481,-5.49924 34.34335,-13.24589 41.41074,-18.10501 3.83989,-2.64008 7.81866,-4.47895 8.84171,-4.08637 3.93421,1.5097 68.35751,76.14629 92.75733,107.46253 40.56464,52.06317 69.78406,106.41145 85.37061,158.78979 8.35478,28.0761 12.14897,50.48689 12.97982,76.66664 1.52666,48.1048 -5.12102,74.6553 -26.87393,107.3334 -13.80658,20.7407 -35.02212,40.2457 -54.72382,50.3115 -18.22898,9.3134 -41.15444,13.6275 -59.38162,11.1745 -13.66934,-1.8396 -23.38831,-5.3536 -35.08818,-12.6866 -8.83526,-5.5376 -14.74886,-10.108 -42.02245,-32.4778 -5.59593,-4.5898 -14.49878,-10.5184 -19.78411,-13.1746 -9.12955,-4.5883 -10.12886,-4.7986 -20,-4.2092 -12.0813,0.7213 -17.75083,3.2045 -29.34334,12.8519 -8.23758,6.8554 -14.73815,16.9506 -13.31054,20.6709 1.13902,2.9682 7.30508,2.8204 12.01974,-0.2881 2.06589,-1.3621 5.67435,-5.4082 8.01879,-8.9912 3.1799,-4.8599 5.61253,-6.9662 9.57716,-8.2925 6.36777,-2.1301 17.58411,-1.1636 24.5224,2.1131 2.63568,1.2448 14.44763,11.6196 26.24877,23.0553 23.4581,22.7315 34.95221,31.2097 49.21005,36.2976 8.87963,3.1687 24.69119,7.0013 33.33333,8.0798 10.59498,1.3222 37.24319,0.6864 48.63004,-1.1603 z"
       id="path2" />
    <path
       style="fill:#ffcc00"
       d="m 497.69255,223.44319 c -2.7783,-3.53205 -3.71076,-11.599 -1.70538,-14.75377 2.23913,-3.5225 7.43202,-4.16365 12.58728,-1.55413 5.96768,3.02077 7.41421,7.23786 4.44936,12.97125 -3.88111,7.50525 -10.85786,9.02365 -15.33126,3.33665 z"
       id="path3" />
  </g>
</svg>
